<?xml version="1.0" standalone="no"?><!DOCTYPE svg PUBLIC "-//W3C//DTD SVG 1.1//EN" "http://www.w3.org/Graphics/SVG/1.1/DTD/svg11.dtd"><svg t="1655994084018" class="icon" viewBox="0 0 1024 1024" version="1.1" xmlns="http://www.w3.org/2000/svg" p-id="1144" xmlns:xlink="http://www.w3.org/1999/xlink" width="18" height="18"><defs><style type="text/css">@font-face { font-family: feedback-iconfont; src: url("//at.alicdn.com/t/font_1031158_u69w8yhxdu.woff2?t=1630033759944") format("woff2"), url("//at.alicdn.com/t/font_1031158_u69w8yhxdu.woff?t=1630033759944") format("woff"), url("//at.alicdn.com/t/font_1031158_u69w8yhxdu.ttf?t=1630033759944") format("truetype"); }
</style></defs><path d="M72.533333 484.309333c0-212.906667 198.528-382.549333 439.466667-382.549333 240.938667 0 439.466667 169.6 439.466667 382.549333 0 212.992-198.528 382.592-439.466667 382.592-10.581333 0-25.301333 2.773333-43.306667 7.552-17.792 4.693333-37.717333 11.093333-58.496 17.706667-28.032 8.96-57.557333 18.432-83.797333 24.234667a235.690667 235.690667 0 0 1-37.333333 5.674666c-11.392 0.597333-22.528-0.170667-32.085334-3.626666-17.322667-6.272-22.698667-22.314667-24.064-36.437334-1.322667-13.824 0.64-30.336 2.389334-45.141333l0.085333-0.853333c1.706667-14.634667 3.242667-27.818667 2.645333-38.698667-0.597333-11.221333-3.285333-16.085333-6.186666-18.133333-96.896-69.888-159.317333-175.786667-159.317334-294.826667zM512 186.752c-205.696 0-354.432 142.506667-354.432 297.557333 0 87.808 45.824 169.514667 124.032 225.877334 36.778667 26.538667 40.789333 67.754667 41.472 85.162666 0.426667 11.690667-0.426667 24.064-1.450667 34.730667 12.16-3.157333 25.728-7.210667 40.576-11.861333l21.034667-6.698667c17.322667-5.546667 35.712-11.392 52.394667-16.128 22.229333-6.314667 50.688-13.482667 76.373333-13.482667 205.696 0 354.432-142.506667 354.432-297.6 0-155.050667-148.736-297.557333-354.432-297.557333z m9.941333 105.344a123.050667 123.050667 0 0 1 82.261334 30.933333l0.256 0.256c11.477333 10.666667 20.48 24.106667 26.368 38.741334l0.085333 0.256c5.546667 14.506667 8.362667 30.165333 7.68 45.994666a119.04 119.04 0 0 1-18.773333 68.821334 34.090667 34.090667 0 0 1-5.12 6.741333c-7.04 7.338667-22.997333 22.784-41.770667 39.936l-0.426667 0.426667c-6.912 5.802667-12.629333 13.184-16.64 21.76-4.181333 8.96-6.314667 18.688-6.314666 28.714666 0 11.093333-8.96 20.053333-20.053334 20.053334H486.4a20.053333 20.053333 0 0 1-20.053333-19.84c-0.512-18.304 2.730667-36.693333 9.813333-53.632l0.213333-0.426667 0.170667-0.384c0.853333-1.706667 2.048-4.096 3.541333-6.528l0.128-0.170667a295.722667 295.722667 0 0 1 58.538667-66.048l5.12-6.314666 0.042667-0.085334a47.36 47.36 0 0 0 10.752-29.44V411.733333a47.061333 47.061333 0 0 0-10.581334-31.488 40.96 40.96 0 0 0-26.752-10.88 19.328 19.328 0 0 1-6.912-0.426666 36.778667 36.778667 0 0 0-20.309333 4.138666 39.68 39.68 0 0 0-13.653333 11.861334 78.762667 78.762667 0 0 0-9.386667 25.088l-0.085333 0.554666a41.728 41.728 0 0 1-14.890667 23.296 39.850667 39.850667 0 0 1-25.6 8.32 41.045333 41.045333 0 0 1-18.090667-4.224 40.704 40.704 0 0 1-22.144-27.733333 38.826667 38.826667 0 0 1 0-17.578667c5.290667-23.850667 16.810667-45.653333 33.152-63.232l0.213334-0.256 0.256-0.256a128.768 128.768 0 0 1 90.666666-36.821333h0.085334c1.450667 0 2.858667 0.128 3.541333 0.170667l0.725333 0.085333h0.298667c2.517333-0.298667 4.864-0.256 6.485333-0.256h0.213334z m-13.269333 325.973333c13.610667-0.213333 26.538667 5.333333 36.096 14.592l0.213333 0.213334 0.213334 0.213333c9.088 9.685333 14.08 22.528 14.378666 35.797333 0.298667 13.098667-4.010667 25.728-12.16 35.797334a50.389333 50.389333 0 0 1-38.656 18.261333h-1.365333a50.56 50.56 0 0 1-46.848-31.488 54.016 54.016 0 0 1-3.84-29.610667v-0.085333c1.450667-9.685333 5.589333-19.328 12.373333-27.008l0.298667-0.298667 0.256-0.298666 1.536-1.493334c9.6-9.386667 22.357333-14.549333 35.541333-14.549333h1.962667z" fill="#ffffff" p-id="1145"></path></svg>